<svg width="24" height="24" viewBox="0 0 24 24" fill="none" xmlns="http://www.w3.org/2000/svg">
<path d="M18.3235 22.4996C17.4085 22.4996 16.1232 22.1686 14.1985 21.0933C11.8581 19.7808 10.0477 18.5691 7.71993 16.2474C5.47555 14.0044 4.38337 12.5522 2.85477 9.77066C1.1279 6.63003 1.42227 4.98378 1.75133 4.28019C2.14321 3.43925 2.72165 2.93628 3.4693 2.43707C3.89397 2.15883 4.34337 1.92032 4.8118 1.72457C4.85868 1.70441 4.90227 1.68519 4.94118 1.66785C5.17321 1.56332 5.52477 1.40535 5.97008 1.5741C6.26727 1.68566 6.53258 1.91394 6.9479 2.3241C7.79962 3.1641 8.96352 5.03488 9.3929 5.95363C9.68118 6.57285 9.87196 6.9816 9.87243 7.44003C9.87243 7.97675 9.60243 8.39066 9.27477 8.83738C9.21337 8.92128 9.15243 9.00144 9.09337 9.07925C8.73665 9.548 8.65837 9.68347 8.70993 9.92535C8.81446 10.4114 9.59399 11.8585 10.8751 13.1368C12.1562 14.415 13.5615 15.1453 14.0495 15.2494C14.3016 15.3033 14.4399 15.2218 14.9237 14.8524C14.9931 14.7994 15.0643 14.7446 15.1388 14.6897C15.6385 14.318 16.0332 14.055 16.5573 14.055H16.5601C17.0162 14.055 17.4066 14.2528 18.0535 14.5791C18.8973 15.0047 20.8243 16.1536 21.6695 17.0063C22.0806 17.4207 22.3098 17.685 22.4218 17.9818C22.5906 18.4285 22.4316 18.7786 22.3281 19.013C22.3107 19.0519 22.2915 19.0946 22.2713 19.1419C22.074 19.6095 21.8341 20.058 21.5546 20.4816C21.0563 21.2269 20.5515 21.8039 19.7087 22.1963C19.2759 22.401 18.8023 22.5047 18.3235 22.4996Z" fill="#959595"/>
</svg>
