<svg width="24" height="24" viewBox="0 0 24 24" fill="none" xmlns="http://www.w3.org/2000/svg">
<path d="M6.99944 14C6.56292 14.0007 6.13181 14.0966 5.73618 14.281C5.34055 14.4655 4.98995 14.734 4.70883 15.068C4.42772 15.4019 4.22286 15.7932 4.10857 16.2145C3.99427 16.6358 3.97329 17.0769 4.04709 17.5072C4.12088 17.9374 4.28768 18.3463 4.53583 18.7055C4.78399 19.0646 5.10752 19.3652 5.48386 19.5864C5.86019 19.8076 6.28026 19.944 6.71474 19.986C7.14923 20.0281 7.58766 19.9749 7.99944 19.83" stroke="#45269E" stroke-width="1.5" stroke-linecap="round" stroke-linejoin="round"/>
<path d="M4.26391 15.605C3.66548 15.3169 3.1482 14.8843 2.75876 14.3462C2.36933 13.8082 2.12 13.1817 2.03327 12.5232C1.94655 11.8647 2.02515 11.195 2.262 10.5745C2.49885 9.95396 2.88648 9.40219 3.38991 8.96896M3.41991 8.88796C3.09196 8.39721 2.94821 7.80624 3.01413 7.21969C3.08005 6.63313 3.35138 6.08882 3.78009 5.6831C4.2088 5.27739 4.76723 5.03645 5.35652 5.00293C5.94582 4.96941 6.52797 5.14547 6.99991 5.49996M7.23791 5.56496C7.07839 5.226 6.99708 4.85553 6.99999 4.48092C7.0029 4.10631 7.08997 3.73715 7.25475 3.40072C7.41953 3.06428 7.65781 2.76918 7.95198 2.53723C8.24615 2.30528 8.58869 2.1424 8.95428 2.06064C9.31987 1.97887 9.69916 1.98032 10.0641 2.06486C10.4291 2.14941 10.7704 2.31489 11.0627 2.54907C11.3551 2.78326 11.5912 3.08017 11.7534 3.41785C11.9156 3.75552 11.9999 4.12534 11.9999 4.49996M11.9999 4.49996V20M11.9999 4.49996C12 4.12534 12.0842 3.75552 12.2464 3.41785C12.4087 3.08017 12.6447 2.78326 12.9371 2.54907C13.2295 2.31489 13.5708 2.14941 13.9357 2.06486C14.3007 1.98032 14.68 1.97887 15.0455 2.06064C15.4111 2.1424 15.7537 2.30528 16.0478 2.53723C16.342 2.76918 16.5803 3.06428 16.7451 3.40072C16.9099 3.73715 16.9969 4.10631 16.9998 4.48092C17.0028 4.85553 16.9214 5.226 16.7619 5.56496M11.9999 20C11.9999 20.5304 11.7892 21.0391 11.4141 21.4142C11.0391 21.7892 10.5303 22 9.99991 22C9.46948 22 8.96077 21.7892 8.5857 21.4142C8.21063 21.0391 7.99991 20.5304 7.99991 20M11.9999 20C11.9999 20.5304 12.2106 21.0391 12.5857 21.4142C12.9608 21.7892 13.4695 22 13.9999 22M11.9999 6.99996C11.9999 7.79561 12.316 8.55867 12.8786 9.12128C13.4412 9.68389 14.2043 9.99996 14.9999 9.99996M20.6099 8.96896C21.0465 9.34402 21.3968 9.8091 21.6367 10.3323C21.8767 10.8555 22.0006 11.4244 21.9999 12C21.9999 12.703 21.8189 13.364 21.4999 13.938M20.5799 8.88796C20.9079 8.39721 21.0516 7.80624 20.9857 7.21969C20.9198 6.63313 20.6484 6.08882 20.2197 5.6831C19.791 5.27739 19.2326 5.03645 18.6433 5.00293C18.054 4.96941 17.4719 5.14547 16.9999 5.49996M20.4999 20.5L21.9999 22M15.9999 18.5C15.9999 19.163 16.2633 19.7989 16.7321 20.2677C17.201 20.7366 17.8369 21 18.4999 21C19.163 21 19.7988 20.7366 20.2677 20.2677C20.7365 19.7989 20.9999 19.163 20.9999 18.5C20.9999 17.8369 20.7365 17.201 20.2677 16.7322C19.7988 16.2634 19.163 16 18.4999 16C17.8369 16 17.201 16.2634 16.7321 16.7322C16.2633 17.201 15.9999 17.8369 15.9999 18.5Z" stroke="#45269E" stroke-width="1.5" stroke-linecap="round" stroke-linejoin="round"/>
</svg>
